<svg id="Layer_1" data-name="Layer 1" xmlns="http://www.w3.org/2000/svg" viewBox="0 0 200 200"><title>bsgd_newicon</title><path d="M100,7.53A92.47,92.47,0,1,1,7.53,100,92.57,92.57,0,0,1,100,7.53M100,5a95,95,0,1,0,95,95A95,95,0,0,0,100,5Z" fill="#d15035"/><path d="M85.59,94.67a2.74,2.74,0,0,1-2,4.69H81.81a2.47,2.47,0,0,0-2.47,2.48v1.69a2.77,2.77,0,0,1-4.69,2,2.64,2.64,0,0,1-.79-2v-1.82a2.47,2.47,0,0,0-2.47-2.48H69.56a2.67,2.67,0,0,1-2-4.56l.13-.13a3.11,3.11,0,0,1,1.82-.65h1.83a2.47,2.47,0,0,0,2.47-2.48V89.59a2.68,2.68,0,0,1,2.74-2.74,2.68,2.68,0,0,1,2,.78l.13.13a3.16,3.16,0,0,1,.65,1.83v1.82a2.47,2.47,0,0,0,2.47,2.48h1.83A2.65,2.65,0,0,1,85.59,94.67ZM150.43,128a9.72,9.72,0,0,1-6.25,6,13.58,13.58,0,0,1-8.34-.91c-5.09-2.08-11-6.51-16.68-11.86-4-3.91-11.6-5.86-19.16-5.86s-15.12,2-19.16,5.86c-5.73,5.35-11.59,9.78-16.68,11.86a12.7,12.7,0,0,1-8.34.91q-4.09-1.17-6.25-5.86c-1.43-3.39-2.09-8.21-1.82-14.86A97.82,97.82,0,0,1,50.61,94.4a66.61,66.61,0,0,1,5.87-15.9C65.6,62.34,75.5,65,87.36,68a85.11,85.11,0,0,0,12,2.34h1.3a85.11,85.11,0,0,0,12-2.34c11.86-3.13,21.76-5.61,30.88,10.42a72.52,72.52,0,0,1,5.87,15.9,97.82,97.82,0,0,1,2.86,18.89C152.52,119.94,151.86,124.76,150.43,128ZM91.06,96.63a7.72,7.72,0,0,0-2.21-5.35,7.93,7.93,0,0,0-4.69-2.21,7.36,7.36,0,0,0-2.09-4.56l-.13-.13a7.34,7.34,0,0,0-5.34-2.22,7.66,7.66,0,0,0-5.34,2.22A7.52,7.52,0,0,0,69,89.07a7.77,7.77,0,0,0-4.69,2.08l-.13.13A7.41,7.41,0,0,0,62,96.63,7.7,7.7,0,0,0,64.22,102,7.27,7.27,0,0,0,69,104.18a6.91,6.91,0,0,0,2.22,4.69,7.36,7.36,0,0,0,5.34,2.22,7.65,7.65,0,0,0,5.34-2.22,7.85,7.85,0,0,0,2.22-4.69A7,7,0,0,0,88.85,102,7.39,7.39,0,0,0,91.06,96.63Zm29.32-.07a4.56,4.56,0,1,0-4.56,4.56A4.56,4.56,0,0,0,120.38,96.56Zm9.26,9.25a4.57,4.57,0,1,0-4.56,4.56A4.56,4.56,0,0,0,129.64,105.81Zm0-18.5a4.57,4.57,0,1,0-4.56,4.56A4.56,4.56,0,0,0,129.64,87.31Zm9.25,9.25a4.56,4.56,0,1,0-4.56,4.56A4.56,4.56,0,0,0,138.89,96.56Z" fill="#d15035"/></svg>