<?xml version="1.0" standalone="no"?>
<!DOCTYPE svg PUBLIC "-//W3C//DTD SVG 20010904//EN"
 "http://www.w3.org/TR/2001/REC-SVG-20010904/DTD/svg10.dtd">
<svg version="1.0" xmlns="http://www.w3.org/2000/svg"
 width="260.000000pt" height="260.000000pt" viewBox="0 0 260.000000 260.000000"
 preserveAspectRatio="xMidYMid meet">
<metadata>
Created by potrace 1.14, written by Peter Selinger 2001-2017
</metadata>
<g transform="translate(0.000000,260.000000) scale(0.100000,-0.100000)"
fill="#000000" stroke="none">
<path d="M1223 2593 c4 -7 -6 -11 -26 -11 -70 -1 -97 -6 -97 -16 0 -6 -5 -4
-10 4 -5 8 -10 10 -10 5 0 -6 -10 -12 -22 -12 -43 -2 -68 -7 -68 -13 0 -3 -8
-7 -17 -8 -21 -2 -57 -10 -60 -12 -2 -2 -7 -4 -13 -5 -5 -1 -12 -4 -15 -5 -3
-1 -8 -3 -12 -4 -5 -1 -14 -5 -20 -9 -7 -5 -18 -5 -25 -1 -6 4 -8 3 -5 -3 4
-6 -12 -16 -38 -23 -25 -7 -45 -16 -45 -21 0 -4 -14 -10 -30 -14 -16 -4 -30
-11 -30 -16 0 -6 -5 -7 -10 -4 -5 3 -10 1 -10 -4 0 -6 -6 -11 -14 -11 -7 0
-25 -11 -40 -25 -14 -13 -26 -22 -26 -19 0 3 -20 -9 -45 -27 -24 -17 -42 -36
-38 -42 3 -6 1 -7 -5 -3 -5 3 -29 -12 -52 -34 -23 -22 -47 -40 -52 -40 -6 0
-9 -3 -5 -6 3 -3 -13 -25 -36 -48 -49 -49 -77 -83 -77 -94 0 -4 -9 -13 -20
-20 -12 -7 -18 -17 -15 -22 3 -6 1 -10 -4 -10 -6 0 -11 -7 -11 -15 0 -8 -4
-15 -10 -15 -5 0 -10 -5 -10 -11 0 -6 -9 -23 -20 -39 -11 -15 -17 -30 -13 -34
3 -3 2 -6 -3 -6 -6 0 -16 -16 -24 -35 -8 -19 -17 -35 -20 -35 -4 0 -7 -6 -7
-12 -1 -7 -13 -44 -28 -83 -15 -38 -29 -81 -31 -95 -3 -14 -7 -33 -10 -42 -3
-10 -8 -30 -10 -45 -3 -15 -9 -32 -14 -38 -5 -6 -5 -17 0 -25 6 -10 4 -20 -6
-31 -10 -11 -12 -19 -5 -24 7 -4 8 -12 2 -24 -6 -10 -6 -23 -1 -31 5 -8 5 -21
-1 -31 -6 -12 -5 -20 2 -25 8 -4 8 -9 0 -17 -14 -14 -14 -30 -1 -22 5 3 10 1
10 -4 0 -6 -4 -11 -8 -11 -10 0 -9 -30 1 -47 4 -6 1 -14 -5 -16 -10 -4 -10 -7
0 -15 17 -12 17 -22 0 -33 -11 -7 -11 -9 1 -9 8 0 11 -7 8 -20 -3 -11 -2 -20
2 -20 4 0 7 -13 6 -30 -1 -16 1 -30 4 -30 3 0 7 -12 8 -27 4 -45 15 -93 22
-93 4 0 8 -12 9 -26 1 -15 6 -32 12 -39 5 -6 7 -15 3 -18 -3 -4 -1 -7 5 -7 6
0 9 -7 6 -15 -4 -8 -1 -15 5 -15 6 0 11 -7 11 -15 0 -9 8 -30 17 -48 9 -18 16
-35 15 -39 -1 -3 5 -12 13 -18 8 -7 15 -19 15 -26 0 -8 5 -14 10 -14 6 0 9 -3
8 -7 -3 -8 67 -118 89 -141 7 -7 13 -18 13 -23 0 -6 4 -7 10 -4 5 3 10 -1 10
-9 0 -9 4 -16 8 -16 5 0 15 -11 22 -25 7 -13 17 -22 22 -19 4 3 8 -2 8 -11 0
-9 4 -14 9 -10 5 3 12 -4 16 -15 3 -11 10 -20 15 -20 5 0 20 -10 33 -23 14
-12 39 -33 56 -47 18 -14 38 -31 46 -38 7 -6 18 -12 24 -12 6 0 11 -4 11 -10
0 -5 7 -10 15 -10 8 0 15 -4 15 -10 0 -5 10 -10 22 -10 12 0 18 -3 15 -7 -8
-7 166 -93 188 -93 8 0 15 -5 15 -10 0 -6 3 -9 8 -8 7 2 87 -19 112 -29 8 -4
24 -7 35 -8 11 -1 31 -5 45 -10 14 -5 36 -9 50 -10 14 0 31 -5 39 -9 10 -7 12
-5 6 3 -6 10 -3 11 13 2 14 -7 70 -9 169 -6 209 8 223 9 223 18 0 5 5 5 10 2
6 -3 10 -2 10 2 0 5 11 10 25 11 45 3 55 5 55 11 0 3 12 7 26 8 15 0 29 5 33
10 3 4 15 10 26 11 11 2 36 11 55 19 19 9 40 17 45 18 25 7 64 33 58 39 -4 4
0 4 9 1 8 -3 22 0 29 7 8 8 33 23 56 35 23 11 40 22 38 25 -3 3 7 11 23 19 29
15 51 32 118 95 24 23 44 39 44 37 0 -4 30 30 81 91 13 16 30 34 37 42 6 7 12
17 12 22 0 5 9 17 20 27 11 10 20 21 20 25 0 4 16 33 36 63 20 31 36 59 36 64
0 4 7 16 15 26 9 9 13 17 10 17 -4 0 3 18 14 40 11 21 22 47 24 57 2 10 4 20
5 23 1 3 2 8 1 13 0 4 3 7 7 7 7 0 11 16 14 58 1 6 5 12 10 12 5 0 6 5 3 10
-4 6 -2 16 3 23 5 7 8 20 7 30 -2 9 2 17 8 17 7 0 5 5 -3 10 -12 8 -12 10 -1
10 8 0 11 3 8 7 -4 3 -2 12 4 20 9 9 8 13 0 13 -9 0 -9 5 -1 21 7 11 9 23 6
26 -3 4 0 13 7 21 9 13 9 14 0 8 -7 -4 -13 -3 -13 3 0 5 5 11 11 13 9 3 9 9 1
24 -8 16 -8 24 1 33 9 9 8 14 -3 21 -11 7 -11 10 -2 10 13 0 13 35 -1 58 -5 6
-4 12 2 12 9 0 10 17 0 35 -2 6 -5 31 -4 57 0 27 -2 48 -5 48 -4 0 -6 10 -7
23 -1 29 -11 80 -22 109 -9 25 -11 32 -11 49 0 5 -6 7 -12 3 -10 -6 -10 -4 0
8 8 10 9 19 4 22 -6 3 -13 18 -17 33 -11 45 -85 193 -127 255 -21 31 -38 62
-38 68 0 6 -4 8 -10 5 -5 -3 -10 1 -10 9 0 9 -4 16 -10 16 -5 0 -10 7 -10 16
0 8 -4 12 -10 9 -5 -3 -10 0 -10 7 0 13 -163 178 -176 178 -4 0 -17 11 -30 26
-13 14 -24 22 -24 19 0 -3 -15 5 -33 19 -19 15 -39 26 -45 26 -7 0 -12 4 -12
9 0 10 -111 66 -124 62 -5 -1 -13 4 -17 11 -5 7 -12 13 -16 14 -4 0 -21 6 -38
13 -16 7 -38 13 -47 14 -10 1 -18 5 -18 10 0 4 -4 6 -9 2 -5 -3 -12 -1 -16 4
-3 6 -12 8 -20 4 -8 -3 -15 -1 -15 4 0 5 -8 10 -17 11 -32 3 -48 7 -61 16 -7
4 -16 5 -19 2 -3 -3 -12 -1 -20 6 -11 9 -12 7 -7 -8 5 -17 4 -17 -8 -4 -7 9
-21 14 -32 12 -10 -2 -16 0 -13 5 3 4 -32 8 -76 8 -45 -1 -90 3 -101 8 -13 6
-16 6 -11 -2 7 -13 -35 -9 -56 5 -7 4 -9 3 -6 -3z m-203 -724 c0 -3 12 -4 28
-2 48 6 372 8 372 2 0 -3 23 -3 50 1 28 4 50 2 50 -2 0 -5 5 -6 11 -3 5 4 22
2 37 -3 39 -15 56 -20 62 -18 3 0 18 -7 33 -17 15 -9 27 -15 27 -12 0 6 13 -5
82 -69 26 -24 44 -47 41 -50 -4 -3 -1 -6 5 -6 7 0 12 -7 12 -15 0 -8 3 -15 8
-15 4 0 13 -15 20 -32 8 -18 18 -43 24 -55 6 -12 11 -38 12 -57 0 -20 5 -36
10 -36 5 0 4 -6 -2 -12 -5 -7 -6 -22 -2 -33 4 -11 3 -28 -2 -39 -7 -13 -6 -21
2 -26 8 -5 9 -13 4 -21 -12 -20 -13 -53 -1 -61 8 -4 7 -11 0 -20 -6 -7 -7 -22
-3 -33 4 -11 3 -28 -2 -39 -7 -13 -6 -21 3 -27 9 -5 10 -11 2 -21 -6 -7 -7
-22 -3 -33 4 -11 3 -28 -2 -39 -7 -13 -6 -21 3 -27 9 -5 10 -11 2 -21 -6 -7
-7 -22 -3 -33 4 -11 3 -28 -2 -39 -7 -13 -6 -21 3 -27 9 -5 10 -11 2 -21 -6
-7 -7 -22 -3 -33 4 -11 3 -28 -2 -39 -7 -13 -6 -21 3 -27 11 -7 11 -9 -1 -9
-9 0 -11 -3 -5 -8 13 -9 18 -35 5 -27 -5 3 -10 2 -10 -4 0 -5 5 -13 10 -16 8
-5 8 -11 1 -19 -7 -8 -39 -12 -93 -11 -46 1 -89 -4 -97 -9 -11 -8 -13 -8 -8 0
4 8 -22 10 -88 9 -52 -1 -92 2 -89 7 3 4 -1 8 -8 8 -9 0 -9 3 2 10 8 5 10 10
5 10 -6 0 -11 9 -11 20 0 11 4 20 9 20 5 0 4 6 -2 14 -8 9 -8 16 -2 20 7 5 7
15 1 31 -6 17 -6 25 1 25 6 0 7 6 3 12 -11 18 -12 48 -2 48 5 0 5 8 -1 17 -6
11 -6 24 0 35 7 12 6 18 -1 18 -7 0 -8 6 -1 17 6 11 6 24 0 35 -7 12 -6 18 1
18 6 0 8 5 3 13 -10 16 -10 38 0 60 5 10 4 17 -3 17 -7 0 -8 6 -1 17 6 11 6
24 0 35 -7 12 -6 18 1 18 6 0 8 5 3 13 -10 16 -10 38 0 60 4 9 4 17 -1 17 -5
0 -7 12 -5 28 2 15 4 33 3 40 -2 38 -5 52 -10 52 -4 0 -15 8 -26 18 -26 23
-33 24 -141 26 -57 1 -93 -3 -93 -9 0 -7 -3 -7 -8 0 -7 10 -111 15 -113 5 -1
-3 -2 -178 -2 -390 l-2 -385 -187 -1 c-127 0 -188 3 -189 10 -1 16 -1 1086 0
1118 l1 27 103 3 c144 4 167 4 167 -3z"/>
</g>
</svg>
