<svg id="Layer_1" data-name="Layer 1" xmlns="http://www.w3.org/2000/svg" viewBox="0 0 529.02 220.4"><defs><style>.cls-1{fill:none;stroke:#434142;stroke-miterlimit:10;}.cls-2{fill:#fd0;}.cls-3{fill:#434142;}</style></defs><path class="cls-1" d="M97.16,48.36A61.84,61.84,0,1,0,159,110.2,61.84,61.84,0,0,0,97.16,48.36Z"/><path class="cls-2" d="M126.05,137.92H107.56V105A4.05,4.05,0,0,0,103.5,101H89.08v37H70.59V82.47h34.94A20.52,20.52,0,0,1,126.05,103Z"/><path class="cls-3" d="M180.7,75.63a.72.72,0,0,1,.76-.76h9.13a1.42,1.42,0,0,1,1.3.76l18.26,32.57h.38V75.63a.72.72,0,0,1,.76-.76h8.6a.71.71,0,0,1,.76.76v50.23a.72.72,0,0,1-.76.76h-9a1.36,1.36,0,0,1-1.3-.76L191.2,93.36h-.38v32.5a.72.72,0,0,1-.76.76h-8.6a.72.72,0,0,1-.76-.76Z"/><path class="cls-3" d="M226.74,75.63a.72.72,0,0,1,.76-.76h33.18a.71.71,0,0,1,.76.76v8.14a.71.71,0,0,1-.76.76H238.39a.41.41,0,0,0-.46.46V95.26a.4.4,0,0,0,.46.46H257a.73.73,0,0,1,.77.76v8.07a.72.72,0,0,1-.77.76H238.39a.4.4,0,0,0-.46.46V116.5a.4.4,0,0,0,.46.45h22.29a.72.72,0,0,1,.76.76v8.15a.72.72,0,0,1-.76.76H227.5a.72.72,0,0,1-.76-.76Z"/><path class="cls-3" d="M265.7,107.59v-32a.72.72,0,0,1,.76-.76h9.67a.71.71,0,0,1,.76.76V107.9c0,6.16,3.43,9.66,8.68,9.66s8.6-3.5,8.6-9.66V75.63a.71.71,0,0,1,.76-.76h9.66a.71.71,0,0,1,.76.76v32c0,12.86-8.22,19.87-19.78,19.87S265.7,120.45,265.7,107.59Z"/><path class="cls-3" d="M311.21,75.63a.71.71,0,0,1,.76-.76H321a1.18,1.18,0,0,1,1.22.76l13.09,29.53h.3L348.5,75.63a1.18,1.18,0,0,1,1.22-.76h8.9a.71.71,0,0,1,.76.76v50.23a.72.72,0,0,1-.76.76H350a.72.72,0,0,1-.76-.76V96.71H349l-9.59,21.84a1.46,1.46,0,0,1-1.45,1h-5.25a1.44,1.44,0,0,1-1.44-1l-9.59-21.84h-.31v29.15a.72.72,0,0,1-.76.76H312a.72.72,0,0,1-.76-.76Z"/><path class="cls-3" d="M365.54,114.9c-1.14-3.58-1.44-6.47-1.44-14.16s.3-10.57,1.44-14.15C368.21,78.22,375.36,74,384.42,74s16.21,4.19,18.87,12.56c1.14,3.58,1.45,6.47,1.45,14.15s-.31,10.58-1.45,14.16c-2.66,8.37-9.81,12.56-18.87,12.56S368.21,123.27,365.54,114.9Zm27-3.05c.61-1.82.84-4.33.84-11.11s-.23-9.28-.84-11.11c-1.14-3.57-3.88-5.7-8.14-5.7s-7,2.13-8.14,5.7c-.61,1.83-.84,4.34-.84,11.11s.23,9.29.84,11.11c1.14,3.58,3.88,5.71,8.14,5.71S391.42,115.43,392.56,111.85Z"/><path class="cls-3" d="M409.45,75.63a.72.72,0,0,1,.76-.76h9.14a1.41,1.41,0,0,1,1.29.76l18.27,32.57h.38V75.63a.71.71,0,0,1,.76-.76h8.6a.72.72,0,0,1,.76.76v50.23a.72.72,0,0,1-.76.76h-9.06a1.33,1.33,0,0,1-1.29-.76L420,93.36h-.38v32.5a.73.73,0,0,1-.77.76h-8.6a.72.72,0,0,1-.76-.76Z"/><path class="cls-3" d="M466.91,126.62a.72.72,0,0,1-.76-.76V85.29a.4.4,0,0,0-.46-.45H452.6a.72.72,0,0,1-.76-.76V75.63a.72.72,0,0,1,.76-.76h38.28a.71.71,0,0,1,.76.76v8.45a.72.72,0,0,1-.76.76H477.79a.4.4,0,0,0-.45.45v40.57a.73.73,0,0,1-.77.76Z"/><path class="cls-3" d="M487,127.13a4.22,4.22,0,1,1,4.22-4.22A4.21,4.21,0,0,1,487,127.13Zm0-7.65a3.44,3.44,0,1,0,3.36,3.43A3.37,3.37,0,0,0,487,119.48Zm.88,5.7-.93-1.8h-.58v1.8h-.84v-4.55h1.71a1.41,1.41,0,0,1,1.47,1.4,1.25,1.25,0,0,1-.89,1.23l1,1.92Zm-.74-3.84h-.77v1.38h.77a.69.69,0,1,0,0-1.38Z"/><path class="cls-3" d="M180.38,139.8a8,8,0,0,1,.31-3,3.78,3.78,0,0,1,3.9-2.7,3.88,3.88,0,0,1,3.83,2.44.13.13,0,0,1-.09.19l-1.75.79a.15.15,0,0,1-.23-.08,1.81,1.81,0,0,0-1.74-1.24,1.61,1.61,0,0,0-1.65,1.21,15.5,15.5,0,0,0,0,4.71,1.61,1.61,0,0,0,1.65,1.21,1.81,1.81,0,0,0,1.74-1.24.15.15,0,0,1,.23-.08l1.75.79a.13.13,0,0,1,.09.19,3.86,3.86,0,0,1-3.83,2.44,3.77,3.77,0,0,1-3.9-2.69A8.07,8.07,0,0,1,180.38,139.8Z"/><path class="cls-3" d="M192.86,142.8a14.72,14.72,0,0,1,0-6,4.35,4.35,0,0,1,8,0,15.2,15.2,0,0,1,0,6,4.35,4.35,0,0,1-8,0Zm5.73-.65a15.5,15.5,0,0,0,0-4.71,1.83,1.83,0,0,0-3.45,0,15.5,15.5,0,0,0,0,4.71,1.83,1.83,0,0,0,3.45,0Z"/><path class="cls-3" d="M205.87,134.47a.16.16,0,0,1,.17-.16h2.05a.15.15,0,0,1,.16.16v8.6c0,.07,0,.1.09.1h4.84a.16.16,0,0,1,.17.16v1.79a.16.16,0,0,1-.17.16H206a.16.16,0,0,1-.17-.16Z"/><path class="cls-3" d="M217.65,134.47a.15.15,0,0,1,.16-.16h2.05a.15.15,0,0,1,.16.16v8.6c0,.07,0,.1.1.1H225a.15.15,0,0,1,.16.16v1.79a.15.15,0,0,1-.16.16h-7.15a.15.15,0,0,1-.16-.16Z"/><path class="cls-3" d="M229.42,134.47a.15.15,0,0,1,.16-.16h7a.15.15,0,0,1,.16.16v1.73a.16.16,0,0,1-.16.16h-4.73c-.07,0-.1,0-.1.1v2.17c0,.07,0,.1.1.1h3.93a.16.16,0,0,1,.17.16v1.71a.16.16,0,0,1-.17.16h-3.93a.09.09,0,0,0-.1.1v2.28c0,.06,0,.09.1.09h4.73a.16.16,0,0,1,.16.16v1.73a.15.15,0,0,1-.16.16h-7a.15.15,0,0,1-.16-.16Z"/><path class="cls-3" d="M241.14,139.8a8.71,8.71,0,0,1,.31-3,3.88,3.88,0,0,1,4-2.66,3.94,3.94,0,0,1,3.91,2.34c0,.1,0,.2-.07.24l-1.72.73c-.12,0-.2,0-.23-.08a2,2,0,0,0-1.89-1.13,1.7,1.7,0,0,0-1.76,1.23,7.78,7.78,0,0,0-.18,2.34,8,8,0,0,0,.18,2.35,1.93,1.93,0,0,0,3.55.08,3.77,3.77,0,0,0,.13-1.08c0-.06,0-.1-.09-.1h-1.49a.15.15,0,0,1-.16-.16v-1.55a.15.15,0,0,1,.16-.16h3.78a.16.16,0,0,1,.16.16v.91a8.52,8.52,0,0,1-.28,2.47,4.34,4.34,0,0,1-8,.08A8.65,8.65,0,0,1,241.14,139.8Z"/><path class="cls-3" d="M254.46,134.47a.15.15,0,0,1,.16-.16h7a.15.15,0,0,1,.16.16v1.73a.15.15,0,0,1-.16.16h-4.73c-.07,0-.1,0-.1.1v2.17c0,.07,0,.1.1.1h3.94a.15.15,0,0,1,.16.16v1.71a.15.15,0,0,1-.16.16h-3.94a.09.09,0,0,0-.1.1v2.28c0,.06,0,.09.1.09h4.73a.15.15,0,0,1,.16.16v1.73a.15.15,0,0,1-.16.16h-7a.15.15,0,0,1-.16-.16Z"/><path class="cls-3" d="M273.19,142.8a15.2,15.2,0,0,1,0-6,4.35,4.35,0,0,1,8,0,15.2,15.2,0,0,1,0,6,4.35,4.35,0,0,1-8,0Zm5.73-.65a15.5,15.5,0,0,0,0-4.71,1.83,1.83,0,0,0-3.45,0,15.5,15.5,0,0,0,0,4.71,1.83,1.83,0,0,0,3.45,0Z"/><path class="cls-3" d="M286.21,134.47a.15.15,0,0,1,.16-.16h7a.16.16,0,0,1,.17.16v1.73a.16.16,0,0,1-.17.16h-4.72c-.07,0-.1,0-.1.1v2.3c0,.07,0,.1.1.1h3.93a.16.16,0,0,1,.17.16v1.71a.16.16,0,0,1-.17.16h-3.93a.09.09,0,0,0-.1.1v4.13a.15.15,0,0,1-.16.16h-2.05a.15.15,0,0,1-.16-.16Z"/><path class="cls-3" d="M304.5,139.8a8.27,8.27,0,0,1,.31-3,3.78,3.78,0,0,1,3.9-2.7,3.87,3.87,0,0,1,3.83,2.44.12.12,0,0,1-.08.19l-1.76.79a.15.15,0,0,1-.23-.08,1.8,1.8,0,0,0-1.74-1.24,1.62,1.62,0,0,0-1.65,1.21,16.4,16.4,0,0,0,0,4.71,1.62,1.62,0,0,0,1.65,1.21,1.8,1.8,0,0,0,1.74-1.24.15.15,0,0,1,.23-.08l1.76.79a.12.12,0,0,1,.08.19,3.85,3.85,0,0,1-3.83,2.44,3.77,3.77,0,0,1-3.9-2.69A8.31,8.31,0,0,1,304.5,139.8Z"/><path class="cls-3" d="M317,142.8a15.2,15.2,0,0,1,0-6,4.35,4.35,0,0,1,8,0,15.2,15.2,0,0,1,0,6,4.35,4.35,0,0,1-8,0Zm5.73-.65a15.5,15.5,0,0,0,0-4.71,1.83,1.83,0,0,0-3.45,0,15.5,15.5,0,0,0,0,4.71,1.83,1.83,0,0,0,3.45,0Z"/><path class="cls-3" d="M330,134.47a.15.15,0,0,1,.16-.16h1.92a.25.25,0,0,1,.26.16l2.77,6.26h.07l2.73-6.26a.23.23,0,0,1,.25-.16h1.89a.15.15,0,0,1,.16.16v10.65a.15.15,0,0,1-.16.16h-1.82a.15.15,0,0,1-.16-.16v-6.18H338l-2,4.63a.3.3,0,0,1-.31.21h-1.11a.31.31,0,0,1-.31-.21l-2-4.63h-.07v6.18a.15.15,0,0,1-.16.16h-1.82a.15.15,0,0,1-.16-.16Z"/><path class="cls-3" d="M345.37,145.28a.15.15,0,0,1-.16-.16V134.47a.15.15,0,0,1,.16-.16h4.26c2.39,0,3.82,1.44,3.82,3.53s-1.45,3.52-3.82,3.52h-1.95c-.07,0-.1,0-.1.1v3.66a.15.15,0,0,1-.16.16Zm5.71-7.44a1.44,1.44,0,0,0-1.6-1.48h-1.8c-.07,0-.1,0-.1.1v2.75c0,.07,0,.1.1.1h1.8A1.42,1.42,0,0,0,351.08,137.84Z"/><path class="cls-3" d="M357.82,141.25v-6.78a.15.15,0,0,1,.16-.16h2a.15.15,0,0,1,.16.16v6.84a1.85,1.85,0,1,0,3.67,0v-6.84a.15.15,0,0,1,.16-.16h2.05a.15.15,0,0,1,.16.16v6.78a4.21,4.21,0,1,1-8.41,0Z"/><path class="cls-3" d="M373.59,145.28a.15.15,0,0,1-.16-.16v-8.6c0-.06,0-.1-.09-.1h-2.78a.15.15,0,0,1-.16-.16v-1.79a.15.15,0,0,1,.16-.16h8.12a.15.15,0,0,1,.16.16v1.79a.15.15,0,0,1-.16.16H375.9a.09.09,0,0,0-.1.1v8.6a.15.15,0,0,1-.16.16Z"/><path class="cls-3" d="M383.06,134.47a.15.15,0,0,1,.16-.16h7a.16.16,0,0,1,.17.16v1.73a.16.16,0,0,1-.17.16h-4.72c-.07,0-.1,0-.1.1v2.17c0,.07,0,.1.1.1h3.93a.15.15,0,0,1,.16.16v1.71a.15.15,0,0,1-.16.16h-3.93a.09.09,0,0,0-.1.1v2.28c0,.06,0,.09.1.09h4.72a.16.16,0,0,1,.17.16v1.73a.16.16,0,0,1-.17.16h-7a.15.15,0,0,1-.16-.16Z"/><path class="cls-3" d="M401.14,145.28a.21.21,0,0,1-.24-.16l-1.89-4h-1.47a.09.09,0,0,0-.1.1v3.92a.15.15,0,0,1-.16.16h-2a.15.15,0,0,1-.16-.16V134.47a.15.15,0,0,1,.16-.16h4.37c2.25,0,3.73,1.4,3.73,3.4a3.2,3.2,0,0,1-1.95,3l2.16,4.33a.12.12,0,0,1-.11.19Zm-.18-7.57a1.33,1.33,0,0,0-1.48-1.35h-1.94c-.07,0-.1,0-.1.1V139a.09.09,0,0,0,.1.1h1.94A1.34,1.34,0,0,0,401,137.71Z"/><path class="cls-3" d="M414.2,144a.2.2,0,0,1,0-.27l1.22-1.41a.18.18,0,0,1,.25,0,4.59,4.59,0,0,0,2.87,1.13c1.14,0,1.79-.53,1.79-1.3s-.39-1.05-1.69-1.23l-.59-.08c-2.22-.31-3.47-1.36-3.47-3.29s1.52-3.36,3.89-3.36a6.2,6.2,0,0,1,3.73,1.15c.1.06.11.13,0,.24l-1,1.47a.17.17,0,0,1-.23,0,4.51,4.51,0,0,0-2.55-.84c-1,0-1.46.5-1.46,1.19s.45,1,1.71,1.21l.58.08c2.26.31,3.45,1.34,3.45,3.33s-1.47,3.45-4.31,3.45A6.5,6.5,0,0,1,414.2,144Z"/><path class="cls-3" d="M426.94,139.8a8.27,8.27,0,0,1,.31-3,3.78,3.78,0,0,1,3.9-2.7,3.87,3.87,0,0,1,3.83,2.44.12.12,0,0,1-.08.19l-1.76.79a.15.15,0,0,1-.23-.08,1.8,1.8,0,0,0-1.74-1.24,1.62,1.62,0,0,0-1.65,1.21,16.4,16.4,0,0,0,0,4.71,1.62,1.62,0,0,0,1.65,1.21,1.8,1.8,0,0,0,1.74-1.24.15.15,0,0,1,.23-.08l1.76.79a.12.12,0,0,1,.08.19,3.85,3.85,0,0,1-3.83,2.44,3.77,3.77,0,0,1-3.9-2.69A8.31,8.31,0,0,1,426.94,139.8Z"/><path class="cls-3" d="M439.41,134.47a.15.15,0,0,1,.16-.16h2.05a.15.15,0,0,1,.16.16v10.65a.15.15,0,0,1-.16.16h-2.05a.15.15,0,0,1-.16-.16Z"/><path class="cls-3" d="M446.77,134.47a.15.15,0,0,1,.16-.16h7a.15.15,0,0,1,.16.16v1.73a.15.15,0,0,1-.16.16h-4.73a.09.09,0,0,0-.1.1v2.17a.09.09,0,0,0,.1.1h3.94a.15.15,0,0,1,.16.16v1.71a.15.15,0,0,1-.16.16h-3.94a.09.09,0,0,0-.1.1v2.28c0,.06,0,.09.1.09H454a.15.15,0,0,1,.16.16v1.73a.15.15,0,0,1-.16.16h-7a.15.15,0,0,1-.16-.16Z"/><path class="cls-3" d="M458.78,134.47a.16.16,0,0,1,.17-.16h1.93a.31.31,0,0,1,.28.16l3.87,6.91h.08v-6.91a.15.15,0,0,1,.16-.16h1.83a.15.15,0,0,1,.16.16v10.65a.15.15,0,0,1-.16.16h-1.92a.3.3,0,0,1-.28-.16L461,138.23h-.08v6.89a.15.15,0,0,1-.16.16H459a.16.16,0,0,1-.17-.16Z"/><path class="cls-3" d="M472,139.8a8,8,0,0,1,.31-3,3.78,3.78,0,0,1,3.9-2.7,3.88,3.88,0,0,1,3.83,2.44.12.12,0,0,1-.08.19l-1.76.79a.15.15,0,0,1-.23-.08,1.81,1.81,0,0,0-1.74-1.24,1.61,1.61,0,0,0-1.65,1.21,16.4,16.4,0,0,0,0,4.71,1.61,1.61,0,0,0,1.65,1.21,1.81,1.81,0,0,0,1.74-1.24.15.15,0,0,1,.23-.08l1.76.79a.12.12,0,0,1,.08.19,3.86,3.86,0,0,1-3.83,2.44,3.77,3.77,0,0,1-3.9-2.69A8.07,8.07,0,0,1,472,139.8Z"/><path class="cls-3" d="M484.43,134.47a.15.15,0,0,1,.16-.16h7a.15.15,0,0,1,.16.16v1.73a.15.15,0,0,1-.16.16H486.9c-.07,0-.1,0-.1.1v2.17c0,.07,0,.1.1.1h3.93a.15.15,0,0,1,.16.16v1.71a.15.15,0,0,1-.16.16H486.9a.09.09,0,0,0-.1.1v2.28c0,.06,0,.09.1.09h4.72a.15.15,0,0,1,.16.16v1.73a.15.15,0,0,1-.16.16h-7a.15.15,0,0,1-.16-.16Z"/></svg>