<svg id="Layer_1" data-name="Layer 1" xmlns="http://www.w3.org/2000/svg" viewBox="0 0 296.18 253.6"><defs><style>.cls-1{fill:none;stroke:#434142;stroke-miterlimit:10;stroke-width:1.68px;}.cls-2{fill:#fd0;}.cls-3{fill:#434142;}</style></defs><path class="cls-1" d="M146.48,69.62A41.48,41.48,0,1,0,188,111.1,41.48,41.48,0,0,0,146.48,69.62Z"/><path class="cls-2" d="M165.86,129.7h-12.4V107.63a2.73,2.73,0,0,0-2.73-2.73h-9.67v24.8h-12.4V92.5h23.43a13.78,13.78,0,0,1,13.77,13.77Z"/><path class="cls-3" d="M87.21,163.83a.29.29,0,0,1,.31-.3h3.65a.56.56,0,0,1,.51.3l7.3,13h.15v-13a.29.29,0,0,1,.31-.3h3.44a.28.28,0,0,1,.3.3v20.08a.28.28,0,0,1-.3.3H99.26a.53.53,0,0,1-.52-.3l-7.33-13h-.15v13a.29.29,0,0,1-.31.3H87.52a.29.29,0,0,1-.31-.3Z"/><path class="cls-3" d="M105.61,163.83a.29.29,0,0,1,.31-.3h13.26a.28.28,0,0,1,.3.3v3.26a.28.28,0,0,1-.3.3h-8.91a.17.17,0,0,0-.19.19v4.1c0,.12.06.18.19.18h7.42a.29.29,0,0,1,.3.31v3.22a.29.29,0,0,1-.3.31h-7.42c-.13,0-.19.06-.19.18v4.29c0,.12.06.18.19.18h8.91a.28.28,0,0,1,.3.3v3.26a.28.28,0,0,1-.3.3H105.92a.29.29,0,0,1-.31-.3Z"/><path class="cls-3" d="M121.18,176.61V163.83a.29.29,0,0,1,.31-.3h3.86a.29.29,0,0,1,.31.3v12.9c0,2.46,1.36,3.86,3.46,3.86s3.44-1.4,3.44-3.86v-12.9a.28.28,0,0,1,.3-.3h3.87a.28.28,0,0,1,.3.3v12.78c0,5.14-3.28,7.94-7.91,7.94S121.18,181.75,121.18,176.61Z"/><path class="cls-3" d="M139.37,163.83a.29.29,0,0,1,.31-.3h3.62a.46.46,0,0,1,.48.3L149,175.64h.12l5.15-11.81a.46.46,0,0,1,.48-.3h3.56a.28.28,0,0,1,.3.3v20.08a.28.28,0,0,1-.3.3h-3.44a.28.28,0,0,1-.3-.3V172.26h-.12L150.63,181a.59.59,0,0,1-.58.39H148a.59.59,0,0,1-.58-.39l-3.83-8.73h-.12v11.65a.29.29,0,0,1-.31.3h-3.43a.29.29,0,0,1-.31-.3Z"/><path class="cls-3" d="M161.09,179.53a16.65,16.65,0,0,1-.58-5.66,16.65,16.65,0,0,1,.58-5.66c1.06-3.34,3.92-5,7.54-5s6.48,1.67,7.54,5a16.65,16.65,0,0,1,.58,5.66,16.65,16.65,0,0,1-.58,5.66c-1.06,3.34-3.92,5-7.54,5S162.15,182.87,161.09,179.53Zm10.79-1.22a14.81,14.81,0,0,0,.34-4.44,14.81,14.81,0,0,0-.34-4.44,3.46,3.46,0,0,0-6.5,0,14.81,14.81,0,0,0-.34,4.44,14.81,14.81,0,0,0,.34,4.44,3.46,3.46,0,0,0,6.5,0Z"/><path class="cls-3" d="M178.64,163.83a.28.28,0,0,1,.3-.3h3.65a.57.57,0,0,1,.52.3l7.3,13h.15v-13a.28.28,0,0,1,.3-.3h3.44a.28.28,0,0,1,.3.3v20.08a.28.28,0,0,1-.3.3h-3.62a.55.55,0,0,1-.52-.3l-7.33-13h-.15v13a.28.28,0,0,1-.3.3h-3.44a.28.28,0,0,1-.3-.3Z"/><path class="cls-3" d="M201.6,184.21a.29.29,0,0,1-.31-.3V167.7a.17.17,0,0,0-.18-.19h-5.23a.28.28,0,0,1-.3-.3v-3.38a.28.28,0,0,1,.3-.3h15.3a.28.28,0,0,1,.3.3v3.38a.28.28,0,0,1-.3.3H206a.17.17,0,0,0-.18.19v16.21a.29.29,0,0,1-.31.3Z"/><path class="cls-3" d="M209.62,184.42a1.69,1.69,0,1,1,1.69-1.69A1.69,1.69,0,0,1,209.62,184.42Zm0-3.06a1.38,1.38,0,1,0,1.35,1.37A1.35,1.35,0,0,0,209.62,181.36Zm.36,2.28-.37-.72h-.24v.72H209v-1.82h.68a.57.57,0,0,1,.59.56.5.5,0,0,1-.36.49l.41.77Zm-.3-1.54h-.31v.55h.31a.28.28,0,1,0,0-.55Z"/><path class="cls-3" d="M87.06,190.55a3.46,3.46,0,0,1,.14-1.29,1.64,1.64,0,0,1,1.69-1.17,1.68,1.68,0,0,1,1.66,1.06s0,.07,0,.08l-.77.35a.07.07,0,0,1-.1,0,.77.77,0,0,0-.75-.54.71.71,0,0,0-.72.53,7.47,7.47,0,0,0,0,2,.71.71,0,0,0,.72.53.77.77,0,0,0,.75-.54.07.07,0,0,1,.1,0l.77.35a.05.05,0,0,1,0,.08A1.67,1.67,0,0,1,88.89,193a1.63,1.63,0,0,1-1.69-1.17A3.43,3.43,0,0,1,87.06,190.55Z"/><path class="cls-3" d="M92,191.85a6.11,6.11,0,0,1,0-2.6,1.88,1.88,0,0,1,3.47,0,6.56,6.56,0,0,1,0,2.6,1.88,1.88,0,0,1-3.47,0Zm2.48-.28a3.26,3.26,0,0,0,.08-1,3.31,3.31,0,0,0-.08-1,.72.72,0,0,0-.75-.53.73.73,0,0,0-.75.53,3.88,3.88,0,0,0-.07,1,3.82,3.82,0,0,0,.07,1,.73.73,0,0,0,.75.53A.72.72,0,0,0,94.46,191.57Z"/><path class="cls-3" d="M97.12,188.24a.07.07,0,0,1,.07-.07h.89a.07.07,0,0,1,.07.07V192a0,0,0,0,0,0,0h2.1s.07,0,.07.08v.77a.06.06,0,0,1-.07.07h-3.1a.07.07,0,0,1-.07-.07Z"/><path class="cls-3" d="M101.73,188.24a.07.07,0,0,1,.07-.07h.89a.07.07,0,0,1,.07.07V192s0,0,0,0h2.1a.07.07,0,0,1,.07.08v.77a.07.07,0,0,1-.07.07h-3.1a.07.07,0,0,1-.07-.07Z"/><path class="cls-3" d="M106.33,188.24a.07.07,0,0,1,.07-.07h3.06a.07.07,0,0,1,.07.07V189a.07.07,0,0,1-.07.07h-2s0,0,0,0v1s0,0,0,0h1.7a.06.06,0,0,1,.07.07v.74a.06.06,0,0,1-.07.07h-1.7a0,0,0,0,0,0,0v1s0,0,0,0h2a.07.07,0,0,1,.07.07v.75a.07.07,0,0,1-.07.07H106.4a.07.07,0,0,1-.07-.07Z"/><path class="cls-3" d="M110.92,190.55a4,4,0,0,1,.13-1.3,1.91,1.91,0,0,1,3.45-.14.07.07,0,0,1,0,.1l-.75.32s-.08,0-.1,0a.88.88,0,0,0-.82-.49.74.74,0,0,0-.76.54,3.18,3.18,0,0,0-.08,1,3.26,3.26,0,0,0,.08,1,.74.74,0,0,0,.78.53.76.76,0,0,0,.76-.49,1.86,1.86,0,0,0,.06-.47s0,0,0,0H113a.07.07,0,0,1-.07-.07v-.68s0-.06.07-.06h1.64s.07,0,.07.06v.4a4,4,0,0,1-.12,1.07,1.88,1.88,0,0,1-3.49,0A4,4,0,0,1,110.92,190.55Z"/><path class="cls-3" d="M116.2,188.24a.07.07,0,0,1,.07-.07h3a.07.07,0,0,1,.07.07V189a.07.07,0,0,1-.07.07h-2s0,0,0,0v1s0,0,0,0H119a.07.07,0,0,1,.07.07v.74a.07.07,0,0,1-.07.07h-1.71a0,0,0,0,0,0,0v1s0,0,0,0h2a.07.07,0,0,1,.07.07v.75a.07.07,0,0,1-.07.07h-3a.07.07,0,0,1-.07-.07Z"/><path class="cls-3" d="M123.32,191.85a6.57,6.57,0,0,1,0-2.6,1.89,1.89,0,0,1,3.48,0,6.57,6.57,0,0,1,0,2.6,1.88,1.88,0,0,1-3.48,0Zm2.49-.28a3.63,3.63,0,0,0,.08-1,3.69,3.69,0,0,0-.08-1,.8.8,0,0,0-1.5,0,3.31,3.31,0,0,0-.08,1,3.26,3.26,0,0,0,.08,1,.8.8,0,0,0,1.5,0Z"/><path class="cls-3" d="M128.47,188.24a.07.07,0,0,1,.07-.07h3.05a.07.07,0,0,1,.07.07V189a.07.07,0,0,1-.07.07h-2.05s0,0,0,0v1s0,0,0,0h1.71a.07.07,0,0,1,.07.07V191a.07.07,0,0,1-.07.07h-1.71s0,0,0,0v1.79a.07.07,0,0,1-.07.07h-.89a.07.07,0,0,1-.07-.07Z"/><path class="cls-3" d="M135.4,190.55a3.46,3.46,0,0,1,.14-1.29,1.64,1.64,0,0,1,1.69-1.17,1.67,1.67,0,0,1,1.66,1.06s0,.07,0,.08l-.77.35s-.07,0-.09,0a.79.79,0,0,0-.76-.54.71.71,0,0,0-.72.53,7.47,7.47,0,0,0,0,2,.71.71,0,0,0,.72.53.79.79,0,0,0,.76-.54s.05-.06.09,0l.77.35a.05.05,0,0,1,0,.08,1.66,1.66,0,0,1-1.66,1.06,1.63,1.63,0,0,1-1.69-1.17A3.43,3.43,0,0,1,135.4,190.55Z"/><path class="cls-3" d="M140.32,191.85a6.11,6.11,0,0,1,0-2.6,1.88,1.88,0,0,1,3.47,0,6.56,6.56,0,0,1,0,2.6,1.88,1.88,0,0,1-3.47,0Zm2.48-.28a3.26,3.26,0,0,0,.08-1,3.31,3.31,0,0,0-.08-1,.79.79,0,0,0-1.49,0,3.31,3.31,0,0,0-.08,1,3.26,3.26,0,0,0,.08,1,.79.79,0,0,0,1.49,0Z"/><path class="cls-3" d="M145.46,188.24a.07.07,0,0,1,.07-.07h.84a.11.11,0,0,1,.11.07l1.2,2.72h0l1.19-2.72a.1.1,0,0,1,.11-.07h.82a.07.07,0,0,1,.07.07v4.62a.07.07,0,0,1-.07.07H149a.06.06,0,0,1-.07-.07v-2.68h0l-.88,2a.14.14,0,0,1-.14.09h-.48a.13.13,0,0,1-.13-.09l-.89-2h0v2.68a.07.07,0,0,1-.07.07h-.8a.07.07,0,0,1-.07-.07Z"/><path class="cls-3" d="M151.63,192.93a.07.07,0,0,1-.07-.07v-4.62a.07.07,0,0,1,.07-.07h1.85a1.54,1.54,0,1,1,0,3.06h-.85s0,0,0,0v1.59a.07.07,0,0,1-.07.07Zm2.48-3.23a.62.62,0,0,0-.69-.64h-.79s0,0,0,0v1.2s0,0,0,0h.79A.62.62,0,0,0,154.11,189.7Z"/><path class="cls-3" d="M156.53,191.18v-2.94a.07.07,0,0,1,.07-.07h.89a.07.07,0,0,1,.07.07v3a.8.8,0,1,0,1.59,0v-3a.07.07,0,0,1,.07-.07h.89a.07.07,0,0,1,.07.07v2.94a1.83,1.83,0,1,1-3.65,0Z"/><path class="cls-3" d="M162.87,192.93a.07.07,0,0,1-.07-.07v-3.73s0,0,0,0h-1.2a.06.06,0,0,1-.07-.07v-.78a.06.06,0,0,1,.07-.07h3.52a.07.07,0,0,1,.07.07V189a.07.07,0,0,1-.07.07h-1.21a0,0,0,0,0,0,0v3.73a.07.07,0,0,1-.07.07Z"/><path class="cls-3" d="M166.48,188.24a.06.06,0,0,1,.07-.07h3a.07.07,0,0,1,.07.07V189a.07.07,0,0,1-.07.07h-2s0,0,0,0v1s0,0,0,0h1.71a.07.07,0,0,1,.07.07v.74a.07.07,0,0,1-.07.07h-1.71a0,0,0,0,0,0,0v1s0,0,0,0h2a.07.07,0,0,1,.07.07v.75a.07.07,0,0,1-.07.07h-3a.06.06,0,0,1-.07-.07Z"/><path class="cls-3" d="M173.82,192.93a.09.09,0,0,1-.1-.07l-.82-1.74h-.64s0,0,0,0v1.7a.07.07,0,0,1-.07.07h-.89a.07.07,0,0,1-.07-.07v-4.62a.07.07,0,0,1,.07-.07h1.9a1.47,1.47,0,0,1,1.61,1.48,1.39,1.39,0,0,1-.84,1.32l.94,1.88a.05.05,0,0,1-.05.08Zm-.07-3.28a.58.58,0,0,0-.65-.59h-.84s0,0,0,0v1.1s0,0,0,0h.84A.58.58,0,0,0,173.75,189.65Z"/><path class="cls-3" d="M178.49,192.36a.09.09,0,0,1,0-.12l.53-.61a.07.07,0,0,1,.11,0,2,2,0,0,0,1.25.49c.49,0,.77-.23.77-.56s-.16-.46-.73-.54l-.25,0c-1-.13-1.51-.59-1.51-1.43a1.49,1.49,0,0,1,1.69-1.46,2.69,2.69,0,0,1,1.62.5s0,.06,0,.11l-.43.63a.07.07,0,0,1-.1,0,2,2,0,0,0-1.1-.36c-.42,0-.64.22-.64.52s.2.45.74.52l.26,0c1,.13,1.49.58,1.49,1.44s-.63,1.5-1.87,1.5A2.84,2.84,0,0,1,178.49,192.36Z"/><path class="cls-3" d="M183.51,190.55a3.46,3.46,0,0,1,.14-1.29,1.64,1.64,0,0,1,1.69-1.17,1.67,1.67,0,0,1,1.66,1.06s0,.07,0,.08l-.77.35s-.07,0-.09,0a.79.79,0,0,0-.76-.54.69.69,0,0,0-.71.53,6.54,6.54,0,0,0,0,2,.69.69,0,0,0,.71.53.79.79,0,0,0,.76-.54s0-.06.09,0l.77.35a.05.05,0,0,1,0,.08,1.66,1.66,0,0,1-1.66,1.06,1.63,1.63,0,0,1-1.69-1.17A3.43,3.43,0,0,1,183.51,190.55Z"/><path class="cls-3" d="M188.42,188.24a.07.07,0,0,1,.07-.07h.89a.07.07,0,0,1,.07.07v4.62a.07.07,0,0,1-.07.07h-.89a.07.07,0,0,1-.07-.07Z"/><path class="cls-3" d="M191.12,188.24a.07.07,0,0,1,.07-.07h3.05a.07.07,0,0,1,.07.07V189a.07.07,0,0,1-.07.07h-2.05s0,0,0,0v1s0,0,0,0h1.71a.07.07,0,0,1,.07.07v.74a.07.07,0,0,1-.07.07h-1.71a0,0,0,0,0,0,0v1s0,0,0,0h2.05a.07.07,0,0,1,.07.07v.75a.07.07,0,0,1-.07.07h-3.05a.07.07,0,0,1-.07-.07Z"/><path class="cls-3" d="M195.83,188.24a.07.07,0,0,1,.07-.07h.84a.13.13,0,0,1,.12.07l1.68,3h0v-3a.07.07,0,0,1,.07-.07h.79a.06.06,0,0,1,.07.07v4.62a.06.06,0,0,1-.07.07h-.83a.13.13,0,0,1-.12-.07l-1.69-3h0v3a.07.07,0,0,1-.07.07h-.79a.07.07,0,0,1-.07-.07Z"/><path class="cls-3" d="M201,190.55a3.46,3.46,0,0,1,.14-1.29,1.64,1.64,0,0,1,1.69-1.17,1.68,1.68,0,0,1,1.66,1.06s0,.07,0,.08l-.77.35s-.07,0-.1,0a.77.77,0,0,0-.75-.54.71.71,0,0,0-.72.53,7.47,7.47,0,0,0,0,2,.71.71,0,0,0,.72.53.77.77,0,0,0,.75-.54s.06-.06.1,0l.77.35a.05.05,0,0,1,0,.08,1.67,1.67,0,0,1-1.66,1.06,1.63,1.63,0,0,1-1.69-1.17A3.43,3.43,0,0,1,201,190.55Z"/><path class="cls-3" d="M206,188.24a.07.07,0,0,1,.07-.07h3a.06.06,0,0,1,.07.07V189a.06.06,0,0,1-.07.07h-2s0,0,0,0v1s0,0,0,0h1.71a.07.07,0,0,1,.07.07v.74a.07.07,0,0,1-.07.07H207a0,0,0,0,0,0,0v1s0,0,0,0h2a.06.06,0,0,1,.07.07v.75a.06.06,0,0,1-.07.07h-3a.07.07,0,0,1-.07-.07Z"/></svg>